<svg xmlns="http://www.w3.org/2000/svg" width="8333" height="2500" viewBox="0 0 8333 2500" version="1.1">
	<path d="M 3591.419 379.007 C 3454.671 384.614, 3330.309 422.998, 3228.500 491.023 C 3116.540 565.830, 3030.504 681.245, 2986.620 815.500 C 2959.619 898.103, 2946.016 991.744, 2946.020 1095 C 2946.025 1247.877, 2975.683 1377.867, 3034.774 1484 C 3095.833 1593.668, 3181.206 1677.309, 3288.500 1732.579 C 3369.738 1774.427, 3454.270 1798.397, 3553 1807.582 C 3576.422 1809.761, 3646.597 1810.640, 3672.332 1809.077 C 3814.248 1800.457, 3940.916 1756.428, 4043.500 1680.060 C 4146.010 1603.748, 4226.089 1488.157, 4265.086 1360.208 C 4282.552 1302.906, 4292.856 1245.830, 4298.704 1174 C 4301.214 1143.165, 4301.208 1047.033, 4298.694 1016 C 4290.764 918.129, 4273.670 842.645, 4241.965 765.500 C 4234.250 746.728, 4214.718 708.163, 4203.142 688.847 C 4124.813 558.144, 4017.865 470.530, 3874.288 419.443 C 3789.933 389.428, 3689.037 375.005, 3591.419 379.007 M 1495 1094.500 L 1495 1792 1684 1792 L 1873 1792 1873 1512 L 1873 1232 2123.500 1232 L 2374 1232 2374 1512.003 L 2374 1792.005 2563.250 1791.753 L 2752.500 1791.500 2752.500 1094.500 L 2752.500 397.500 2563.250 397.247 L 2374 396.995 2374 661.997 L 2374 927 2123.500 927 L 1873 927 1873 662 L 1873 397 1684 397 L 1495 397 1495 1094.500 M 4382 549.500 L 4382 702 4590 702 L 4798 702 4798 1247 L 4798 1792 4986.999 1792 L 5175.998 1792 5176.249 1247.250 L 5176.500 702.500 5384.750 702.248 L 5593 701.995 5593 549.498 L 5593 397 4987.500 397 L 4382 397 4382 549.500 M 5723 549.500 L 5723 702 5931 702 L 6139 702 6139 1247.003 L 6139 1792.005 6328.250 1791.753 L 6517.500 1791.500 6517.751 1246.750 L 6518.002 702 6726.001 702 L 6934 702 6934 549.500 L 6934 397 6328.500 397 L 5723 397 5723 549.500 M 3596.819 709.057 C 3452.999 719.387, 3363.845 820.119, 3341.527 997.500 C 3337.149 1032.297, 3336.500 1045.016, 3336.500 1096 C 3336.500 1145.385, 3336.945 1154.471, 3341.053 1189 C 3349.492 1259.934, 3370.112 1322.042, 3400.481 1368 C 3443.396 1432.942, 3502.901 1468.813, 3584 1478.628 C 3603.992 1481.048, 3644.018 1481.047, 3664 1478.627 C 3717.244 1472.178, 3759.445 1455.388, 3795.500 1426.309 C 3859.392 1374.780, 3897.283 1288.790, 3908.469 1169.939 C 3912.169 1130.624, 3912.742 1078.426, 3909.918 1038 C 3897.789 864.358, 3831.998 756.577, 3716.397 720.970 C 3682.084 710.401, 3638.523 706.061, 3596.819 709.057" stroke="none" fill="black" fill-rule="evenodd"/>
</svg>